<svg width="1440" height="394" viewBox="0 0 1440 394" fill="none" xmlns="http://www.w3.org/2000/svg">
<g style="mix-blend-mode:luminosity">
<path fill-rule="evenodd" clip-rule="evenodd" d="M281.816 160.548C291.619 186.997 270.373 215.187 255.838 241.943C240.282 270.58 230.865 311.584 196.335 317.905C161.463 324.288 148.794 280.407 118.644 267.056C90.5357 254.61 39.9416 271.274 30.4916 244.469C21.0711 217.747 67.0284 197.883 85.3512 172.62C100.575 151.63 102.325 122.439 127.262 111.045C153.72 98.9552 183.022 107.664 209.178 116.041C238.341 125.382 272.137 134.431 281.816 160.548Z" fill="#02CCFE" fill-opacity="0.27"/>
</g>
<g style="mix-blend-mode:luminosity">
<path fill-rule="evenodd" clip-rule="evenodd" d="M728.562 161.48C739.919 192.124 715.303 224.785 698.464 255.784C680.44 288.964 669.529 336.471 629.523 343.794C589.12 351.19 574.441 300.349 539.509 284.881C506.943 270.461 448.325 289.768 437.376 258.711C426.461 227.751 479.707 204.737 500.936 175.467C518.574 151.148 520.602 117.326 549.494 104.125C580.149 90.1183 614.098 100.208 644.402 109.914C678.191 120.737 717.347 131.22 728.562 161.48Z" fill="#02CCFE" fill-opacity="0.37"/>
</g>
<g style="mix-blend-mode:luminosity">
<path fill-rule="evenodd" clip-rule="evenodd" d="M1221.67 132.03C1232.23 160.523 1209.34 190.891 1193.68 219.715C1176.92 250.565 1166.78 294.737 1129.58 301.546C1092.02 308.423 1078.37 261.151 1045.89 246.768C1015.61 233.36 961.105 251.313 950.924 222.436C940.776 193.649 990.284 172.251 1010.02 145.036C1026.42 122.424 1028.31 90.9768 1055.17 78.7023C1083.67 65.6787 1115.24 75.0603 1143.42 84.0852C1174.83 94.1479 1211.24 103.895 1221.67 132.03Z" fill="#0CC5F3" fill-opacity="0.46"/>
</g>
<path fill-rule="evenodd" clip-rule="evenodd" d="M468.617 161.981C484.748 185.711 487.286 218.897 474.485 244.577C462.377 268.866 431.903 273.352 407.343 284.901C381.985 296.826 358.167 319.406 331.146 311.981C302.953 304.234 284.633 276.385 275.397 248.643C266.98 223.36 275.969 197.497 284.646 172.301C293.756 145.848 299.138 111.706 325.642 102.743C351.784 93.9022 373.561 123.048 399.056 133.611C423.106 143.575 453.983 140.452 468.617 161.981Z" fill="#02CCFE" fill-opacity="0.60"/>
<path fill-rule="evenodd" clip-rule="evenodd" d="M940.371 156.339C958.107 182.431 960.898 218.921 946.822 247.157C933.509 273.863 900.002 278.796 872.997 291.494C845.115 304.606 818.926 329.434 789.216 321.27C758.216 312.751 738.073 282.131 727.918 251.628C718.663 223.827 728.547 195.39 738.087 167.686C748.104 138.599 754.022 101.059 783.164 91.204C811.909 81.4834 835.853 113.53 863.886 125.145C890.329 136.101 924.28 132.666 940.371 156.339Z" fill="#02CCFE" fill-opacity="0.70"/>
<path fill-rule="evenodd" clip-rule="evenodd" d="M1442.98 121.735C1462.36 149.419 1464.36 188.848 1447.4 219.884C1431.34 249.239 1392.96 255.665 1361.75 270.293C1329.52 285.395 1298.84 313.133 1265.22 305.253C1230.13 297.031 1208.14 264.521 1197.55 231.814C1187.89 202.005 1200.09 170.887 1211.87 140.574C1224.23 108.748 1232.2 67.8999 1265.76 56.2832C1298.86 44.8248 1325.14 78.7567 1356.74 90.428C1386.55 101.438 1425.39 96.6186 1442.98 121.735Z" fill="#02CCFE" fill-opacity="0.99"/>
</svg>
